<svg version="1.1" id="_x32_" xmlns="http://www.w3.org/2000/svg" xmlns:xlink="http://www.w3.org/1999/xlink" x="0px" y="0px" viewBox="0 0 512 512" width="256px" height="256px" xml:space="preserve">
<rect x="0" y="0" width="512" height="512" rx="40" ry="40" fill="#FFF"/>
<g fill="#1A5EE6" transform="translate(100,80) scale(0.8)">
	<path class="station" d="M437.575,351.629V129.868C437.575,80.233,397.351,40,347.707,40H164.293c-49.625,0-89.868,40.233-89.868,89.868
		    v221.761c0,37.628,27.383,68.98,63.269,75.221L81.334,512h50.11l23.132-34.961h202.867L380.574,512h50.101l-56.35-85.15
		    C410.201,420.601,437.575,389.257,437.575,351.629z  
        M121,124.186c0-11.284,9.137-20.438,20.421-20.438h229.15c11.276,0,20.429,9.154,20.429,20.438v86.206c0,11.284-9.154,20.429-20.429,20.429
		    h-229.15c-11.284,0-20.421-9.145-20.421-20.429v-229.15z 
		M169.618,454.312l17.41-26.318h137.953l17.41,26.318H169.618z"></path>
    <g fill="#FFF">
        <circle cx="151" cy="304" r="30"/>
        <circle cx="361" cy="304" r="30"/>
    </g>
</g>
<g transform="scale(-0.5,0.5) translate(-520,30)">
    <path fill="#1A5EE6" d="M499.516,439.313l-79.547-79.563l-60.219,60.219l79.547,79.563c8.047,8.031,18.734,12.469,30.125,12.469
		c11.359,0,22.047-4.438,30.094-12.469c8.063-8.047,12.484-18.75,12.484-30.125S507.563,447.344,499.516,439.313z"/>
	<path fill="#1A5EE6" stroke="#FFF" stroke-width="30"  d="
        M399.391,362.313L358,320.906c0.063-0.094,0.063-0.188,0.125-0.25c26.563-34.719,41.156-77.688,41.125-121.031
		c0.047-53.281-20.703-103.438-58.469-141.156C303.109,20.766,253.063,0,199.375,0C146.172,0,96.141,20.766,58.469,58.469
		C20.703,96.188-0.063,146.344,0,199.641c-0.047,53.297,20.719,103.422,58.453,141.141c37.688,37.719,87.766,58.469,141.188,58.469
		h0.188c43.234,0,86.141-14.594,120.828-41.125c0.078-0.063,0.156-0.094,0.234-0.125l41.406,41.406L399.391,362.313z"/>
    <path fill="#1A5EE6" d="
        M399.391,362.313L358,320.906c0.063-0.094,0.063-0.188,0.125-0.25c26.563-34.719,41.156-77.688,41.125-121.031
		c0.047-53.281-20.703-103.438-58.469-141.156C303.109,20.766,253.063,0,199.375,0C146.172,0,96.141,20.766,58.469,58.469
		C20.703,96.188-0.063,146.344,0,199.641c-0.047,53.297,20.719,103.422,58.453,141.141c37.688,37.719,87.766,58.469,141.188,58.469
		h0.188c43.234,0,86.141-14.594,120.828-41.125c0.078-0.063,0.156-0.094,0.234-0.125l41.406,41.406L399.391,362.313z"/>
	<path fill="#FFF" d="M294.688,294.688c-25.391,25.344-59.125,39.344-95.078,39.406c-35.922-0.063-69.672-14.063-95.047-39.406
		c-25.359-25.359-39.344-59.125-39.391-95.063c0.047-35.938,14.031-69.688,39.375-95.063c25.375-25.344,59.125-39.313,95.063-39.391
		c0.016-0.016,0.031,0,0.031,0c35.922,0.078,69.672,14.047,95.047,39.391c25.344,25.359,39.328,59.125,39.391,95.094
		C334.016,235.578,320.031,269.344,294.688,294.688z"/>
</g>
</svg>
